<svg width="440" height="112" viewBox="0 0 440 112" fill="none" xmlns="http://www.w3.org/2000/svg" role="img" aria-label="Pressroot — Your brand in. Your site out.">
  <defs>
    <linearGradient id="prMark" x1="16" y1="20" x2="88" y2="92" gradientUnits="userSpaceOnUse">
      <stop stop-color="#6C4CF1"/><stop offset=".55" stop-color="#FF4D9D"/><stop offset="1" stop-color="#FF7A3D"/>
    </linearGradient>
    <linearGradient id="prWord" x1="212" y1="40" x2="330" y2="70" gradientUnits="userSpaceOnUse">
      <stop stop-color="#6C4CF1"/><stop offset=".55" stop-color="#FF4D9D"/><stop offset="1" stop-color="#FF7A3D"/>
    </linearGradient>
    <linearGradient id="prSpectrum" x1="100" y1="0" x2="440" y2="0" gradientUnits="userSpaceOnUse">
      <stop stop-color="#6C4CF1"/><stop offset=".2" stop-color="#FF4D9D"/><stop offset=".4" stop-color="#FF7A3D"/>
      <stop offset=".6" stop-color="#FFC53D"/><stop offset=".8" stop-color="#37E29A"/><stop offset="1" stop-color="#22CFEE"/>
    </linearGradient>
    <style>
      .pr-ink { fill: #17151F; }
      .pr-sub { fill: #6E6787; }
      @media (prefers-color-scheme: dark) {
        .pr-ink { fill: #FFF9F5; }
        .pr-sub { fill: #B9A7FF; }
      }
    </style>
  </defs>
  <rect x="16" y="20" width="72" height="72" rx="18" fill="url(#prMark)"/>
  <g transform="translate(16,20) scale(0.75)" stroke="#FFF9F5" stroke-width="5.5" stroke-linecap="round" stroke-linejoin="round" fill="none">
    <path d="M48 30 V60"/>
    <path d="M48 41 C48 31 56 25 66 26 C66 36 59 43 48 41 Z" fill="#FFF9F5" stroke="none"/>
    <path d="M33 60 H63" opacity="0.9"/>
    <path d="M48 60 C44 66 41 68 37 71"/>
    <path d="M48 60 C52 66 55 68 59 71"/>
  </g>
  <text x="104" y="66" font-family="Outfit,'Segoe UI',Arial,sans-serif" font-size="42" font-weight="800" letter-spacing="-1.2">
    <tspan class="pr-ink">Press</tspan><tspan fill="url(#prWord)">root</tspan>
  </text>
  <text x="106" y="90" font-family="'JetBrains Mono','SFMono-Regular',Consolas,monospace" font-size="12" font-weight="600" letter-spacing="2.6" class="pr-sub">YOUR BRAND IN. YOUR SITE OUT.</text>
  <rect x="104" y="100" width="320" height="4" rx="2" fill="url(#prSpectrum)"/>
</svg>
